<svg width="251" height="214" viewBox="0 0 251 214" fill="none" xmlns="http://www.w3.org/2000/svg">
<rect width="251" height="214" rx="5" fill="#A0C4FF"/>
<path d="M250.765 209.004C251.024 211.754 248.624 214 245.863 214C127.406 214 193.845 214 125.5 214C57.9695 214 66.7355 214 5.03223 214C2.27081 214 -0.0243877 211.754 0.234788 209.004C4.23271 166.596 58.7875 133 125.5 133C192.212 133 246.767 166.596 250.765 209.004Z" fill="#4E8D6E"/>
<path d="M127 156.575C127 146.891 127.01 137.896 127.495 130.5M145.781 117.575C132.592 104.15 128.665 112.691 127.495 130.5M127.495 130.5C127.495 129.831 127.486 129.164 127.468 128.5M114.5 99C123.07 103.285 127.102 115.277 127.468 128.5M127.468 128.5V94" stroke="#21552E" stroke-width="3" stroke-linecap="round"/>
<path d="M121.5 158.288C116.7 149.888 110.5 154.788 108 158.288V161.789H144V158.288C139.2 149.488 134.667 154.622 133 158.288C127.8 145.088 123.167 152.788 121.5 158.288Z" fill="#A2D3A2"/>
<path d="M113 47H5C5 17.187 35.0113 15.467 41.1361 28.7764C41.1361 -1.03668 85.8469 -2.14242 85.8469 28.7764C109.121 18.5384 111.911 38.0588 113 47Z" fill="#DDECFF"/>
<path d="M161 93H248C248 69.0042 223.824 67.6197 218.89 78.3322C218.89 54.3363 182.873 53.4463 182.873 78.3322C164.125 70.0919 161.877 85.8034 161 93Z" fill="#DDECFF" fill-opacity="0.7"/>
<path d="M143.864 118.688C145.723 114.138 152.259 106.066 163.53 110.182C160.068 119.874 148.226 121.25 143.864 118.688Z" fill="#2A6536"/>
<path d="M143.196 117.561C147.949 116.309 158.329 116.673 161.822 128.153C151.997 131.219 143.773 122.587 143.196 117.561Z" fill="#3B834A"/>
<path d="M95.8445 102.451C98.6586 98.4205 106.809 91.9836 116.9 98.4775C111.391 107.171 99.5356 105.909 95.8445 102.451Z" fill="#3B834A"/>
<circle cx="127.5" cy="88.5" r="5.5" fill="#3E0B0B"/>
</svg>
