<svg width="251" height="214" viewBox="0 0 251 214" fill="none" xmlns="http://www.w3.org/2000/svg">
<rect width="251" height="214" rx="5" fill="#A0C4FF"/>
<path d="M250.765 209.004C251.024 211.754 248.624 214 245.863 214C127.406 214 193.845 214 125.5 214C57.9695 214 66.7355 214 5.03223 214C2.27081 214 -0.0243877 211.754 0.234788 209.004C4.23271 166.596 58.7875 133 125.5 133C192.212 133 246.767 166.596 250.765 209.004Z" fill="#4E8D6E"/>
<path d="M127 156.575C127 146.891 127.01 137.896 127.495 130.5M145.781 117.575C132.592 104.15 128.665 112.691 127.495 130.5M127.495 130.5C127.495 129.831 127.486 129.164 127.468 128.5M114.5 99C123.07 103.285 127.102 115.277 127.468 128.5M127.468 128.5V83" stroke="#21552E" stroke-width="3" stroke-linecap="round"/>
<path d="M121.5 158.288C116.7 149.888 110.5 154.788 108 158.288V161.789H144V158.288C139.2 149.488 134.667 154.622 133 158.288C127.8 145.088 123.167 152.788 121.5 158.288Z" fill="#A2D3A2"/>
<path d="M113 47H5C5 17.187 35.0113 15.467 41.1361 28.7764C41.1361 -1.03668 85.8469 -2.14242 85.8469 28.7764C109.121 18.5384 111.911 38.0588 113 47Z" fill="#DDECFF"/>
<path d="M161 93H248C248 69.0042 223.824 67.6197 218.89 78.3322C218.89 54.3363 182.873 53.4463 182.873 78.3322C164.125 70.0919 161.877 85.8034 161 93Z" fill="#DDECFF" fill-opacity="0.7"/>
<path d="M143.864 118.688C145.723 114.138 152.259 106.066 163.53 110.182C160.068 119.874 148.226 121.25 143.864 118.688Z" fill="#2A6536"/>
<path d="M143.196 117.561C147.949 116.309 158.329 116.673 161.822 128.153C151.997 131.219 143.773 122.587 143.196 117.561Z" fill="#3B834A"/>
<path d="M95.8445 102.451C98.6586 98.4205 106.809 91.9836 116.9 98.4775C111.391 107.171 99.5356 105.909 95.8445 102.451Z" fill="#3B834A"/>
<circle cx="127.5" cy="79.5" r="6.5" fill="#3E0B0B"/>
<path d="M134.384 64.6046C137.141 61.1484 142.342 60.9973 145.295 64.2875C148.293 67.6279 147.508 72.8721 143.663 75.1879L136.245 79.6558C134.89 74.6518 133.36 72.8006 128.904 71.4754L134.384 64.6046Z" fill="#D5BD7E"/>
<path d="M111.569 76.6047C107.608 74.6407 106.361 69.5889 108.953 66.0073C111.584 62.3712 116.876 62.0303 119.952 65.2987L125.887 71.6045C121.282 73.9864 119.796 75.8735 119.443 80.5091L111.569 76.6047Z" fill="#D5BD7E"/>
<path d="M121.943 62.8677C121.444 59.2361 124.266 56 127.932 56C131.645 56 134.48 59.3149 133.905 62.9825L132.333 73C128.822 71.5106 126.845 71.3642 123.333 73L121.943 62.8677Z" fill="#EAD08B"/>
<path d="M142.517 86.4343C145.943 89.228 146.039 94.4306 142.717 97.348C139.344 100.31 134.109 99.4684 131.835 95.599L127.446 88.1338C132.465 86.8327 134.332 85.3222 135.705 80.8804L142.517 86.4343Z" fill="#D5BD7E"/>
<path d="M120.994 94.2316C118.428 97.8315 113.242 98.2631 110.116 95.137C106.942 91.9633 107.443 86.6843 111.158 84.1644L118.323 79.3028C119.946 84.2263 121.574 85.9923 126.096 87.075L120.994 94.2316Z" fill="#D5BD7E"/>
<path d="M144.132 73.9426C147.764 73.4442 151 76.2664 151 79.9321C151 83.6446 147.685 86.48 144.017 85.9047L134 84.3333C135.489 80.8216 135.636 78.8454 134 75.3333L144.132 73.9426Z" fill="#EAD08B"/>
<path d="M133.057 96.1323C133.556 99.7639 130.734 103 127.068 103C123.355 103 120.52 99.6851 121.095 96.0175L122.667 86C126.178 87.4894 128.155 87.6358 131.667 86L133.057 96.1323Z" fill="#EAD08B"/>
<path d="M110.868 86.0574C107.236 86.5558 104 83.7336 104 80.0679C104 76.3554 107.315 73.52 110.983 74.0953L121 75.6667C119.511 79.1784 119.364 81.1546 121 84.6667L110.868 86.0574Z" fill="#EAD08B"/>
</svg>
