<svg width="251" height="214" viewBox="0 0 251 214" fill="none" xmlns="http://www.w3.org/2000/svg">
<rect width="251" height="214" rx="5" fill="#A0C4FF"/>
<path d="M250.765 209.004C251.024 211.754 248.624 214 245.863 214C127.406 214 193.845 214 125.5 214C57.9695 214 66.7355 214 5.03223 214C2.27081 214 -0.0243877 211.754 0.234788 209.004C4.23271 166.596 58.7875 133 125.5 133C192.212 133 246.767 166.596 250.765 209.004Z" fill="#4E8D6E"/>
<path d="M127 156.575C127 123.575 127.115 98.5745 145.781 117.575" stroke="#21552E" stroke-width="3"/>
<path d="M116.491 137.77C118.697 136.38 121.805 138.086 122.812 140.657C124.609 145.243 123.395 142.143 125.347 147.127C126.812 150.865 127.243 151.966 127.882 153.598C128.89 156.169 127.481 158.8 124.594 158.452C119.158 157.797 114.197 154.478 112.359 149.787C110.521 145.096 112.338 140.388 116.491 137.77Z" fill="#52261F"/>
<path d="M138.888 137.721C136.662 136.355 133.582 138.098 132.613 140.684C130.894 145.276 132.057 142.17 130.184 147.171C128.781 150.917 128.366 152.025 127.755 153.658C126.786 156.244 128.232 158.863 131.111 158.488C136.538 157.779 141.449 154.409 143.213 149.697C144.977 144.986 143.085 140.297 138.888 137.721Z" fill="#8E4C42"/>
<path d="M121.5 158.288C116.7 149.888 110.5 154.788 108 158.288V161.789H144V158.288C139.2 149.488 134.667 154.622 133 158.288C127.8 145.088 123.167 152.788 121.5 158.288Z" fill="#A2D3A2"/>
<path d="M113 47H5C5 17.187 35.0113 15.467 41.1361 28.7764C41.1361 -1.03668 85.8469 -2.14242 85.8469 28.7764C109.121 18.5384 111.911 38.0588 113 47Z" fill="#DDECFF"/>
<path d="M161 93H248C248 69.0042 223.824 67.6197 218.89 78.3322C218.89 54.3363 182.873 53.4463 182.873 78.3322C164.125 70.0919 161.877 85.8034 161 93Z" fill="#DDECFF" fill-opacity="0.7"/>
<path d="M143.864 118.688C145.723 114.138 152.259 106.066 163.53 110.182C160.068 119.874 148.226 121.25 143.864 118.688Z" fill="#2A6536"/>
<path d="M143.196 117.561C147.949 116.309 158.329 116.673 161.822 128.153C151.997 131.219 143.773 122.587 143.196 117.561Z" fill="#3B834A"/>
</svg>
