<svg width="141" height="283" viewBox="0 0 141 283" fill="none" xmlns="http://www.w3.org/2000/svg">
<path d="M-18.9999 268.995C-6.62989 182.913 -6.62986 182.914 4.14224 107.951M113.542 38.8685C70.2912 -23.4491 22.2793 10.3634 4.14224 107.951M4.14224 107.951C7.20736 93.583 66.1057 25.382 89.8237 123.974" stroke="url(#paint0_radial_1604_5545)" stroke-width="7.06108"/>
<path d="M134.585 38.2174C124.404 22.6154 95.5959 23.9206 84.5489 38.2174C73.5018 52.5143 92.9964 61.9228 80 76.139C88.6643 82.2064 98.8447 70.7216 101.227 70.7216C101.227 77.6558 109.025 77.0057 110.325 81.3396C111.625 77.4391 117.906 79.6061 120.722 70.7216C125.401 77.8292 135.235 77.078 140 76.139C127.437 63.7873 142.645 50.5689 134.585 38.2174Z" fill="#FDFAF3" stroke="#F8F0DB" stroke-width="0.799367"/>
<path d="M108.578 113.083C100.264 100.45 76.7367 101.507 67.7149 113.083C58.6931 124.659 74.6137 132.278 64 143.789C71.0758 148.702 79.3898 139.402 81.3357 139.402C81.3357 145.017 87.704 144.491 88.7654 148C89.8267 144.842 94.9567 146.596 97.2564 139.402C101.077 145.158 109.108 144.549 113 143.789C102.74 133.788 115.16 123.084 108.578 113.083Z" fill="#FDFAF3" stroke="#F8F0DB" stroke-width="0.706108"/>
<defs>
<radialGradient id="paint0_radial_1604_5545" cx="0" cy="0" r="1" gradientUnits="userSpaceOnUse" gradientTransform="translate(100.52 93.7455) rotate(107.979) scale(193.29 83.9299)">
<stop offset="0.36517" stop-color="#D5BD7E"/>
<stop offset="1" stop-color="#EED9A2"/>
</radialGradient>
</defs>
</svg>
