<svg width="251" height="214" viewBox="0 0 251 214" fill="none" xmlns="http://www.w3.org/2000/svg">
<rect width="251" height="214" rx="5" fill="#A0C4FF"/>
<path d="M250.765 209.004C251.024 211.754 248.624 214 245.863 214C127.406 214 193.845 214 125.5 214C57.9695 214 66.7355 214 5.03223 214C2.27081 214 -0.0243877 211.754 0.234788 209.004C4.23271 166.596 58.7875 133 125.5 133C192.212 133 246.767 166.596 250.765 209.004Z" fill="#4E8D6E"/>
<path d="M121.518 129.471C124.059 128.543 126.379 131.013 126.379 133.774C126.379 141.253 126.379 136.409 126.379 143.242C126.379 148.862 126.379 149.902 126.379 152.718C126.379 155.479 124.059 157.675 121.518 156.458C116.532 154.068 113 148.619 113 142.478C113 136.338 116.532 131.292 121.518 129.471Z" fill="#52261F"/>
<path d="M131.266 129.583C128.726 128.656 126.405 131.125 126.405 133.887C126.405 141.365 126.405 136.521 126.405 143.354C126.405 148.975 126.405 150.014 126.405 152.83C126.405 155.591 128.726 157.787 131.266 156.57C136.252 154.181 139.784 148.731 139.784 142.591C139.784 136.45 136.252 131.404 131.266 129.583Z" fill="#8E4C42"/>
<path d="M121.5 157.288C116.7 148.888 110.5 153.788 108 157.288V160.789H144V157.288C139.2 148.488 134.667 153.622 133 157.288C127.8 144.088 123.167 151.788 121.5 157.288Z" fill="#A2D3A2"/>
<path d="M113 47H5C5 17.187 35.0113 15.467 41.1361 28.7764C41.1361 -1.03668 85.8469 -2.14242 85.8469 28.7764C109.121 18.5384 111.911 38.0588 113 47Z" fill="#DDECFF"/>
<path d="M161 93H248C248 69.0042 223.824 67.6197 218.89 78.3322C218.89 54.3363 182.873 53.4463 182.873 78.3322C164.125 70.0919 161.877 85.8034 161 93Z" fill="#DDECFF" fill-opacity="0.7"/>
</svg>
