<svg width="251" height="214" viewBox="0 0 251 214" fill="none" xmlns="http://www.w3.org/2000/svg">
<rect width="251" height="214" rx="5" fill="#A0C4FF"/>
<path d="M250.765 209.004C251.024 211.754 248.624 214 245.863 214C127.406 214 193.845 214 125.5 214C57.9695 214 66.7355 214 5.03223 214C2.27081 214 -0.0243877 211.754 0.234788 209.004C4.23271 166.596 58.7875 133 125.5 133C192.212 133 246.767 166.596 250.765 209.004Z" fill="#4E8D6E"/>
<path d="M127 156.575C127 146.891 127.01 137.896 127.495 130.5M145.781 117.575C132.592 104.15 128.665 112.691 127.495 130.5M127.495 130.5C127.495 116.5 123.5 103.5 114.5 99" stroke="#21552E" stroke-width="3"/>
<path d="M116.402 146.167C118.689 145.228 122.16 146.911 123.604 149.265C124.239 150.3 123.805 149.593 125.347 152.108C126.195 153.49 126.697 154.308 127.093 154.954C128.537 157.308 127.49 159.578 124.477 159.332C119.087 158.893 114.184 156.782 112.359 153.807C110.535 150.832 112.312 147.846 116.402 146.167Z" fill="#52261F"/>
<path d="M138.973 146.133C136.666 145.212 133.234 146.933 131.837 149.316C131.257 150.305 131.648 149.639 130.184 152.135C129.385 153.498 128.906 154.315 128.529 154.958C127.133 157.34 128.22 159.618 131.222 159.355C136.605 158.882 141.461 156.738 143.213 153.749C144.965 150.761 143.111 147.785 138.973 146.133Z" fill="#8E4C42"/>
<path d="M121.5 158.288C116.7 149.888 110.5 154.788 108 158.288V161.789H144V158.288C139.2 149.488 134.667 154.622 133 158.288C127.8 145.088 123.167 152.788 121.5 158.288Z" fill="#A2D3A2"/>
<path d="M113 47H5C5 17.187 35.0113 15.467 41.1361 28.7764C41.1361 -1.03668 85.8469 -2.14242 85.8469 28.7764C109.121 18.5384 111.911 38.0588 113 47Z" fill="#DDECFF"/>
<path d="M161 93H248C248 69.0041 223.824 67.6197 218.89 78.3322C218.89 54.3363 182.873 53.4463 182.873 78.3322C164.125 70.0918 161.877 85.8034 161 93Z" fill="#DDECFF" fill-opacity="0.7"/>
<path d="M143.864 118.688C145.723 114.138 152.259 106.066 163.53 110.182C160.068 119.874 148.226 121.25 143.864 118.688Z" fill="#2A6536"/>
<path d="M143.196 117.561C147.949 116.309 158.329 116.673 161.822 128.153C151.997 131.219 143.773 122.587 143.196 117.561Z" fill="#3B834A"/>
<path d="M95.8445 102.451C98.6586 98.4205 106.809 91.9836 116.9 98.4775C111.391 107.171 99.5356 105.909 95.8445 102.451Z" fill="#3B834A"/>
</svg>
